<mxfile host="app.diagrams.net" modified="2023-10-21T11:36:13.378Z" agent="Mozilla/5.0 (Windows NT 10.0; Win64; x64) AppleWebKit/537.36 (KHTML, like Gecko) Chrome/118.0.0.0 Safari/537.36 Edg/118.0.2088.57" etag="32ecmThTiOegH3GtHTB0" version="22.0.6" type="google">
  <diagram name="Page-1" id="2YBvvXClWsGukQMizWep">
    <mxGraphModel grid="1" page="1" gridSize="10" guides="1" tooltips="1" connect="1" arrows="1" fold="1" pageScale="1" pageWidth="850" pageHeight="1100" math="0" shadow="0">
      <root>
        <mxCell id="0" />
        <mxCell id="1" parent="0" />
        <mxCell id="3sMh-_DOKiuEBQc_fx9x-3" value="" style="endArrow=none;dashed=1;html=1;rounded=0;" edge="1" parent="1" target="3sMh-_DOKiuEBQc_fx9x-2">
          <mxGeometry width="50" height="50" relative="1" as="geometry">
            <mxPoint x="85" y="650" as="sourcePoint" />
            <mxPoint x="50" y="120" as="targetPoint" />
          </mxGeometry>
        </mxCell>
        <mxCell id="tI25sh01tE_fZfWiAfD0-4" value="UI" style="shape=umlLifeline;perimeter=lifelinePerimeter;whiteSpace=wrap;html=1;container=0;dropTarget=0;collapsible=0;recursiveResize=0;outlineConnect=0;portConstraint=eastwest;newEdgeStyle={&quot;edgeStyle&quot;:&quot;elbowEdgeStyle&quot;,&quot;elbow&quot;:&quot;vertical&quot;,&quot;curved&quot;:0,&quot;rounded&quot;:0};" vertex="1" parent="1">
          <mxGeometry x="320" y="40" width="100" height="610" as="geometry" />
        </mxCell>
        <mxCell id="tI25sh01tE_fZfWiAfD0-5" value="" style="html=1;points=[];perimeter=orthogonalPerimeter;outlineConnect=0;targetShapes=umlLifeline;portConstraint=eastwest;newEdgeStyle={&quot;edgeStyle&quot;:&quot;elbowEdgeStyle&quot;,&quot;elbow&quot;:&quot;vertical&quot;,&quot;curved&quot;:0,&quot;rounded&quot;:0};" vertex="1" parent="tI25sh01tE_fZfWiAfD0-4">
          <mxGeometry x="40" y="170" width="10" height="20" as="geometry" />
        </mxCell>
        <mxCell id="tI25sh01tE_fZfWiAfD0-6" value="System" style="shape=umlLifeline;perimeter=lifelinePerimeter;whiteSpace=wrap;html=1;container=0;dropTarget=0;collapsible=0;recursiveResize=0;outlineConnect=0;portConstraint=eastwest;newEdgeStyle={&quot;edgeStyle&quot;:&quot;elbowEdgeStyle&quot;,&quot;elbow&quot;:&quot;vertical&quot;,&quot;curved&quot;:0,&quot;rounded&quot;:0};" vertex="1" parent="1">
          <mxGeometry x="575" y="40" width="100" height="610" as="geometry" />
        </mxCell>
        <mxCell id="tI25sh01tE_fZfWiAfD0-7" value="" style="html=1;points=[];perimeter=orthogonalPerimeter;outlineConnect=0;targetShapes=umlLifeline;portConstraint=eastwest;newEdgeStyle={&quot;edgeStyle&quot;:&quot;elbowEdgeStyle&quot;,&quot;elbow&quot;:&quot;vertical&quot;,&quot;curved&quot;:0,&quot;rounded&quot;:0};" vertex="1" parent="tI25sh01tE_fZfWiAfD0-6">
          <mxGeometry x="50" y="80" width="10" height="90" as="geometry" />
        </mxCell>
        <mxCell id="tI25sh01tE_fZfWiAfD0-56" value="Access Database" style="html=1;align=left;spacingLeft=2;endArrow=block;rounded=0;edgeStyle=orthogonalEdgeStyle;curved=0;rounded=0;" edge="1" parent="tI25sh01tE_fZfWiAfD0-6" target="tI25sh01tE_fZfWiAfD0-7">
          <mxGeometry relative="1" as="geometry">
            <mxPoint x="60" y="80" as="sourcePoint" />
            <Array as="points">
              <mxPoint x="90" y="80" />
              <mxPoint x="90" y="110" />
            </Array>
            <mxPoint x="65" y="110" as="targetPoint" />
          </mxGeometry>
        </mxCell>
        <mxCell id="tI25sh01tE_fZfWiAfD0-57" value="Loading the Configuration" style="html=1;align=left;spacingLeft=2;endArrow=block;rounded=0;edgeStyle=orthogonalEdgeStyle;curved=0;rounded=0;" edge="1" parent="tI25sh01tE_fZfWiAfD0-6" source="tI25sh01tE_fZfWiAfD0-7" target="tI25sh01tE_fZfWiAfD0-7">
          <mxGeometry relative="1" as="geometry">
            <mxPoint x="65" y="120" as="sourcePoint" />
            <Array as="points">
              <mxPoint x="95" y="120" />
              <mxPoint x="95" y="150" />
            </Array>
            <mxPoint x="65" y="150" as="targetPoint" />
          </mxGeometry>
        </mxCell>
        <mxCell id="tI25sh01tE_fZfWiAfD0-53" value="Open website and login and choose Configuration service" style="html=1;verticalAlign=bottom;endArrow=block;edgeStyle=elbowEdgeStyle;elbow=horizontal;curved=0;rounded=0;" edge="1" parent="1" target="tI25sh01tE_fZfWiAfD0-6">
          <mxGeometry x="-0.3791" relative="1" as="geometry">
            <mxPoint x="98.25" y="120.37" as="sourcePoint" />
            <Array as="points">
              <mxPoint x="90" y="120" />
            </Array>
            <mxPoint x="610" y="120" as="targetPoint" />
            <mxPoint as="offset" />
          </mxGeometry>
        </mxCell>
        <mxCell id="tI25sh01tE_fZfWiAfD0-54" value="return Configure UI" style="html=1;verticalAlign=bottom;endArrow=open;dashed=1;endSize=8;curved=0;rounded=0;" edge="1" parent="1" source="tI25sh01tE_fZfWiAfD0-6">
          <mxGeometry relative="1" as="geometry">
            <mxPoint x="570" y="210" as="sourcePoint" />
            <mxPoint x="370" y="210" as="targetPoint" />
          </mxGeometry>
        </mxCell>
        <mxCell id="tI25sh01tE_fZfWiAfD0-58" value="" style="endArrow=open;endFill=1;endSize=12;html=1;rounded=0;" edge="1" parent="1">
          <mxGeometry width="160" relative="1" as="geometry">
            <mxPoint x="90" y="329" as="sourcePoint" />
            <mxPoint x="360" y="329" as="targetPoint" />
          </mxGeometry>
        </mxCell>
        <mxCell id="tI25sh01tE_fZfWiAfD0-59" value="Changing money for 1 additional page" style="text;html=1;align=center;verticalAlign=middle;resizable=0;points=[];autosize=1;strokeColor=none;fillColor=none;" vertex="1" parent="1">
          <mxGeometry x="110" y="299" width="230" height="30" as="geometry" />
        </mxCell>
        <mxCell id="tI25sh01tE_fZfWiAfD0-60" value="" style="endArrow=open;endFill=1;endSize=12;html=1;rounded=0;" edge="1" parent="1">
          <mxGeometry width="160" relative="1" as="geometry">
            <mxPoint x="90.00000000000011" y="377.0000000000002" as="sourcePoint" />
            <mxPoint x="360" y="377.0000000000002" as="targetPoint" />
          </mxGeometry>
        </mxCell>
        <mxCell id="tI25sh01tE_fZfWiAfD0-61" value="Add/ Enable/ Disable Printer" style="text;html=1;align=center;verticalAlign=middle;resizable=0;points=[];autosize=1;strokeColor=none;fillColor=none;" vertex="1" parent="1">
          <mxGeometry x="140" y="349" width="170" height="30" as="geometry" />
        </mxCell>
        <mxCell id="tI25sh01tE_fZfWiAfD0-62" value="" style="endArrow=open;endFill=1;endSize=12;html=1;rounded=0;" edge="1" parent="1">
          <mxGeometry width="160" relative="1" as="geometry">
            <mxPoint x="90" y="428.23" as="sourcePoint" />
            <mxPoint x="360" y="428.23" as="targetPoint" />
          </mxGeometry>
        </mxCell>
        <mxCell id="tI25sh01tE_fZfWiAfD0-63" value="Changing number of reset page" style="text;html=1;align=center;verticalAlign=middle;resizable=0;points=[];autosize=1;strokeColor=none;fillColor=none;" vertex="1" parent="1">
          <mxGeometry x="140" y="398.23" width="190" height="30" as="geometry" />
        </mxCell>
        <mxCell id="tI25sh01tE_fZfWiAfD0-64" value="" style="endArrow=open;endFill=1;endSize=12;html=1;rounded=0;" edge="1" parent="1">
          <mxGeometry width="160" relative="1" as="geometry">
            <mxPoint x="90" y="539" as="sourcePoint" />
            <mxPoint x="360" y="539" as="targetPoint" />
          </mxGeometry>
        </mxCell>
        <mxCell id="tI25sh01tE_fZfWiAfD0-65" value="Changing the date resetting the available page" style="text;html=1;align=center;verticalAlign=middle;resizable=0;points=[];autosize=1;strokeColor=none;fillColor=none;" vertex="1" parent="1">
          <mxGeometry x="90" y="509" width="270" height="30" as="geometry" />
        </mxCell>
        <mxCell id="tI25sh01tE_fZfWiAfD0-66" value="" style="endArrow=open;endFill=1;endSize=12;html=1;rounded=0;" edge="1" parent="1">
          <mxGeometry width="160" relative="1" as="geometry">
            <mxPoint x="370" y="339" as="sourcePoint" />
            <mxPoint x="624.4999999999998" y="339" as="targetPoint" />
          </mxGeometry>
        </mxCell>
        <mxCell id="tI25sh01tE_fZfWiAfD0-67" value="Checking the valid number money" style="text;html=1;align=center;verticalAlign=middle;resizable=0;points=[];autosize=1;strokeColor=none;fillColor=none;" vertex="1" parent="1">
          <mxGeometry x="395" y="309" width="200" height="30" as="geometry" />
        </mxCell>
        <mxCell id="tI25sh01tE_fZfWiAfD0-68" value="Is valid page money" style="html=1;verticalAlign=bottom;endArrow=open;dashed=1;endSize=8;curved=0;rounded=0;" edge="1" parent="1">
          <mxGeometry x="0.0024" relative="1" as="geometry">
            <mxPoint x="624.7699999999998" y="369" as="sourcePoint" />
            <mxPoint x="370.00076923076927" y="369" as="targetPoint" />
            <mxPoint as="offset" />
          </mxGeometry>
        </mxCell>
        <mxCell id="tI25sh01tE_fZfWiAfD0-69" value="" style="endArrow=open;endFill=1;endSize=12;html=1;rounded=0;" edge="1" parent="1">
          <mxGeometry width="160" relative="1" as="geometry">
            <mxPoint x="370" y="409" as="sourcePoint" />
            <mxPoint x="624" y="409" as="targetPoint" />
          </mxGeometry>
        </mxCell>
        <mxCell id="tI25sh01tE_fZfWiAfD0-71" value="" style="endArrow=open;endFill=1;endSize=12;html=1;rounded=0;" edge="1" parent="1">
          <mxGeometry width="160" relative="1" as="geometry">
            <mxPoint x="370" y="459" as="sourcePoint" />
            <mxPoint x="624" y="459" as="targetPoint" />
          </mxGeometry>
        </mxCell>
        <mxCell id="tI25sh01tE_fZfWiAfD0-72" value="Checking the valid number page" style="text;html=1;align=center;verticalAlign=middle;resizable=0;points=[];autosize=1;strokeColor=none;fillColor=none;" vertex="1" parent="1">
          <mxGeometry x="395" y="429" width="200" height="30" as="geometry" />
        </mxCell>
        <mxCell id="tI25sh01tE_fZfWiAfD0-73" value="Is valid number page" style="html=1;verticalAlign=bottom;endArrow=open;dashed=1;endSize=8;curved=0;rounded=0;" edge="1" parent="1">
          <mxGeometry x="0.0037" relative="1" as="geometry">
            <mxPoint x="624.7699999999998" y="489" as="sourcePoint" />
            <mxPoint x="370.00076923076927" y="489" as="targetPoint" />
            <mxPoint as="offset" />
          </mxGeometry>
        </mxCell>
        <mxCell id="tI25sh01tE_fZfWiAfD0-74" value="" style="endArrow=open;endFill=1;endSize=12;html=1;rounded=0;" edge="1" parent="1">
          <mxGeometry width="160" relative="1" as="geometry">
            <mxPoint x="370" y="549" as="sourcePoint" />
            <mxPoint x="624" y="549" as="targetPoint" />
          </mxGeometry>
        </mxCell>
        <mxCell id="tI25sh01tE_fZfWiAfD0-75" value="Checking the valid data" style="text;html=1;align=center;verticalAlign=middle;resizable=0;points=[];autosize=1;strokeColor=none;fillColor=none;" vertex="1" parent="1">
          <mxGeometry x="420" y="519" width="150" height="30" as="geometry" />
        </mxCell>
        <mxCell id="tI25sh01tE_fZfWiAfD0-76" value="Is valid data" style="html=1;verticalAlign=bottom;endArrow=open;dashed=1;endSize=8;curved=0;rounded=0;" edge="1" parent="1">
          <mxGeometry x="0.0024" relative="1" as="geometry">
            <mxPoint x="624.7699999999998" y="579" as="sourcePoint" />
            <mxPoint x="370.00076923076927" y="579" as="targetPoint" />
            <mxPoint as="offset" />
          </mxGeometry>
        </mxCell>
        <mxCell id="tI25sh01tE_fZfWiAfD0-77" value="Update printer status" style="text;html=1;align=center;verticalAlign=middle;resizable=0;points=[];autosize=1;strokeColor=none;fillColor=none;" vertex="1" parent="1">
          <mxGeometry x="430" y="379" width="130" height="30" as="geometry" />
        </mxCell>
        <mxCell id="tI25sh01tE_fZfWiAfD0-79" value="Loop" style="shape=umlFrame;whiteSpace=wrap;html=1;pointerEvents=0;" vertex="1" parent="1">
          <mxGeometry x="70" y="250" width="580" height="340" as="geometry" />
        </mxCell>
        <mxCell id="tI25sh01tE_fZfWiAfD0-80" value="[is_valid_page_money = False OR &lt;br&gt;is_valid_number_page = False OR &lt;br&gt;is_valid_data = False]" style="text;html=1;align=left;verticalAlign=middle;resizable=0;points=[];autosize=1;strokeColor=none;fillColor=none;" vertex="1" parent="1">
          <mxGeometry x="130" y="250" width="210" height="60" as="geometry" />
        </mxCell>
        <mxCell id="tI25sh01tE_fZfWiAfD0-81" value="Writing the configuration into Database" style="html=1;verticalAlign=bottom;endArrow=block;curved=0;rounded=0;" edge="1" parent="1">
          <mxGeometry x="-0.0004" width="80" relative="1" as="geometry">
            <mxPoint x="370" y="630" as="sourcePoint" />
            <mxPoint x="624.5000000000002" y="630" as="targetPoint" />
            <mxPoint as="offset" />
          </mxGeometry>
        </mxCell>
        <mxCell id="tI25sh01tE_fZfWiAfD0-83" value="" style="html=1;points=[];perimeter=orthogonalPerimeter;outlineConnect=0;targetShapes=umlLifeline;portConstraint=eastwest;newEdgeStyle={&quot;edgeStyle&quot;:&quot;elbowEdgeStyle&quot;,&quot;elbow&quot;:&quot;vertical&quot;,&quot;curved&quot;:0,&quot;rounded&quot;:0};" vertex="1" parent="1">
          <mxGeometry x="620" y="338.23" width="10" height="301.77" as="geometry" />
        </mxCell>
        <mxCell id="tI25sh01tE_fZfWiAfD0-95" value="" style="html=1;points=[];perimeter=orthogonalPerimeter;outlineConnect=0;targetShapes=umlLifeline;portConstraint=eastwest;newEdgeStyle={&quot;edgeStyle&quot;:&quot;elbowEdgeStyle&quot;,&quot;elbow&quot;:&quot;vertical&quot;,&quot;curved&quot;:0,&quot;rounded&quot;:0};" vertex="1" parent="1">
          <mxGeometry x="360" y="330" width="10" height="310" as="geometry" />
        </mxCell>
        <mxCell id="tXC3wjtG3y1HzoZH3xPi-1" value="" style="endArrow=classic;html=1;rounded=0;" edge="1" parent="1">
          <mxGeometry width="50" height="50" relative="1" as="geometry">
            <mxPoint x="90" y="610" as="sourcePoint" />
            <mxPoint x="360" y="610" as="targetPoint" />
          </mxGeometry>
        </mxCell>
        <mxCell id="tXC3wjtG3y1HzoZH3xPi-2" value="click Update button" style="text;html=1;align=center;verticalAlign=middle;resizable=0;points=[];autosize=1;strokeColor=none;fillColor=none;" vertex="1" parent="1">
          <mxGeometry x="160" y="590" width="130" height="30" as="geometry" />
        </mxCell>
        <mxCell id="3sMh-_DOKiuEBQc_fx9x-1" value="" style="html=1;points=[];perimeter=orthogonalPerimeter;outlineConnect=0;targetShapes=umlLifeline;portConstraint=eastwest;newEdgeStyle={&quot;edgeStyle&quot;:&quot;elbowEdgeStyle&quot;,&quot;elbow&quot;:&quot;vertical&quot;,&quot;curved&quot;:0,&quot;rounded&quot;:0};" vertex="1" parent="1">
          <mxGeometry x="80" y="110" width="10" height="530" as="geometry" />
        </mxCell>
        <mxCell id="3sMh-_DOKiuEBQc_fx9x-2" value="SPSO" style="shape=umlActor;verticalLabelPosition=bottom;verticalAlign=top;html=1;outlineConnect=0;" vertex="1" parent="1">
          <mxGeometry x="70" y="20" width="30" height="60" as="geometry" />
        </mxCell>
      </root>
    </mxGraphModel>
  </diagram>
</mxfile>
